{
	"patcher" : 	{
		"fileversion" : 1,
		"appversion" : 		{
			"major" : 8,
			"minor" : 1,
			"revision" : 11,
			"architecture" : "x64",
			"modernui" : 1
		}
,
		"classnamespace" : "box",
		"rect" : [ 34.0, 87.0, 1080.0, 779.0 ],
		"bglocked" : 0,
		"openinpresentation" : 0,
		"default_fontsize" : 12.0,
		"default_fontface" : 0,
		"default_fontname" : "Arial",
		"gridonopen" : 1,
		"gridsize" : [ 15.0, 15.0 ],
		"gridsnaponopen" : 1,
		"objectsnaponopen" : 1,
		"statusbarvisible" : 2,
		"toolbarvisible" : 1,
		"lefttoolbarpinned" : 0,
		"toptoolbarpinned" : 0,
		"righttoolbarpinned" : 0,
		"bottomtoolbarpinned" : 0,
		"toolbars_unpinned_last_save" : 0,
		"tallnewobj" : 0,
		"boxanimatetime" : 200,
		"enablehscroll" : 1,
		"enablevscroll" : 1,
		"devicewidth" : 0.0,
		"description" : "",
		"digest" : "",
		"tags" : "",
		"style" : "",
		"subpatcher_template" : "",
		"assistshowspatchername" : 0,
		"boxes" : [ 			{
				"box" : 				{
					"id" : "obj-5",
					"maxclass" : "message",
					"numinlets" : 2,
					"numoutlets" : 1,
					"outlettype" : [ "" ],
					"patching_rect" : [ 334.814517990235345, 120.0, 94.0, 22.0 ],
					"text" : "name chords.txt"
				}

			}
, 			{
				"box" : 				{
					"id" : "obj-2",
					"linecount" : 4,
					"maxclass" : "message",
					"numinlets" : 2,
					"numoutlets" : 1,
					"outlettype" : [ "" ],
					"patching_rect" : [ 63.0, 578.0, 50.0, 62.0 ],
					"text" : "\"5 8 2 3 4 14 2 4 0 3 2 11\""
				}

			}
, 			{
				"box" : 				{
					"comment" : "",
					"id" : "obj-641",
					"index" : 14,
					"maxclass" : "outlet",
					"numinlets" : 1,
					"numoutlets" : 0,
					"patching_rect" : [ 1033.5, 634.0, 30.0, 30.0 ]
				}

			}
, 			{
				"box" : 				{
					"comment" : "",
					"id" : "obj-642",
					"index" : 13,
					"maxclass" : "outlet",
					"numinlets" : 1,
					"numoutlets" : 0,
					"patching_rect" : [ 1000.0, 634.0, 30.0, 30.0 ]
				}

			}
, 			{
				"box" : 				{
					"comment" : "",
					"id" : "obj-643",
					"index" : 12,
					"maxclass" : "outlet",
					"numinlets" : 1,
					"numoutlets" : 0,
					"patching_rect" : [ 917.258071960941379, 634.0, 30.0, 30.0 ]
				}

			}
, 			{
				"box" : 				{
					"comment" : "",
					"id" : "obj-644",
					"index" : 11,
					"maxclass" : "outlet",
					"numinlets" : 1,
					"numoutlets" : 0,
					"patching_rect" : [ 883.758071960941379, 634.0, 30.0, 30.0 ]
				}

			}
, 			{
				"box" : 				{
					"comment" : "",
					"id" : "obj-645",
					"index" : 10,
					"maxclass" : "outlet",
					"numinlets" : 1,
					"numoutlets" : 0,
					"patching_rect" : [ 789.758071960941379, 634.0, 30.0, 30.0 ]
				}

			}
, 			{
				"box" : 				{
					"comment" : "",
					"id" : "obj-646",
					"index" : 9,
					"maxclass" : "outlet",
					"numinlets" : 1,
					"numoutlets" : 0,
					"patching_rect" : [ 756.258071960941379, 634.0, 30.0, 30.0 ]
				}

			}
, 			{
				"box" : 				{
					"comment" : "",
					"id" : "obj-635",
					"index" : 8,
					"maxclass" : "outlet",
					"numinlets" : 1,
					"numoutlets" : 0,
					"patching_rect" : [ 661.0, 634.0, 30.0, 30.0 ]
				}

			}
, 			{
				"box" : 				{
					"comment" : "",
					"id" : "obj-636",
					"index" : 7,
					"maxclass" : "outlet",
					"numinlets" : 1,
					"numoutlets" : 0,
					"patching_rect" : [ 627.5, 634.0, 30.0, 30.0 ]
				}

			}
, 			{
				"box" : 				{
					"comment" : "",
					"id" : "obj-637",
					"index" : 6,
					"maxclass" : "outlet",
					"numinlets" : 1,
					"numoutlets" : 0,
					"patching_rect" : [ 539.5, 634.0, 30.0, 30.0 ]
				}

			}
, 			{
				"box" : 				{
					"comment" : "",
					"id" : "obj-638",
					"index" : 5,
					"maxclass" : "outlet",
					"numinlets" : 1,
					"numoutlets" : 0,
					"patching_rect" : [ 506.0, 634.0, 30.0, 30.0 ]
				}

			}
, 			{
				"box" : 				{
					"comment" : "",
					"id" : "obj-633",
					"index" : 4,
					"maxclass" : "outlet",
					"numinlets" : 1,
					"numoutlets" : 0,
					"patching_rect" : [ 408.0, 634.0, 30.0, 30.0 ]
				}

			}
, 			{
				"box" : 				{
					"comment" : "",
					"id" : "obj-634",
					"index" : 3,
					"maxclass" : "outlet",
					"numinlets" : 1,
					"numoutlets" : 0,
					"patching_rect" : [ 374.5, 634.0, 30.0, 30.0 ]
				}

			}
, 			{
				"box" : 				{
					"comment" : "",
					"id" : "obj-632",
					"index" : 2,
					"maxclass" : "outlet",
					"numinlets" : 1,
					"numoutlets" : 0,
					"patching_rect" : [ 290.5, 634.0, 30.0, 30.0 ]
				}

			}
, 			{
				"box" : 				{
					"comment" : "",
					"id" : "obj-631",
					"index" : 1,
					"maxclass" : "outlet",
					"numinlets" : 1,
					"numoutlets" : 0,
					"patching_rect" : [ 257.0, 634.0, 30.0, 30.0 ]
				}

			}
, 			{
				"box" : 				{
					"comment" : "",
					"id" : "obj-629",
					"index" : 17,
					"maxclass" : "inlet",
					"numinlets" : 0,
					"numoutlets" : 1,
					"outlettype" : [ "bang" ],
					"patching_rect" : [ 1234.790330956059051, 232.0, 30.0, 30.0 ]
				}

			}
, 			{
				"box" : 				{
					"id" : "obj-630",
					"maxclass" : "newobj",
					"numinlets" : 3,
					"numoutlets" : 14,
					"outlettype" : [ "", "", "", "", "", "", "", "", "", "", "", "", "", "" ],
					"patching_rect" : [ 1098.290330956059051, 272.0, 155.5, 22.0 ],
					"text" : "sub_for_chords"
				}

			}
, 			{
				"box" : 				{
					"comment" : "",
					"id" : "obj-623",
					"index" : 16,
					"maxclass" : "inlet",
					"numinlets" : 0,
					"numoutlets" : 1,
					"outlettype" : [ "bang" ],
					"patching_rect" : [ 1172.854848946294396, 449.0, 30.0, 30.0 ]
				}

			}
, 			{
				"box" : 				{
					"id" : "obj-624",
					"maxclass" : "newobj",
					"numinlets" : 3,
					"numoutlets" : 14,
					"outlettype" : [ "", "", "", "", "", "", "", "", "", "", "", "", "", "" ],
					"patching_rect" : [ 1036.354848946294396, 488.0, 155.5, 22.0 ],
					"text" : "sub_for_chords"
				}

			}
, 			{
				"box" : 				{
					"comment" : "",
					"id" : "obj-625",
					"index" : 15,
					"maxclass" : "inlet",
					"numinlets" : 0,
					"numoutlets" : 1,
					"outlettype" : [ "bang" ],
					"patching_rect" : [ 1111.790330956059051, 343.0, 30.0, 30.0 ]
				}

			}
, 			{
				"box" : 				{
					"id" : "obj-626",
					"maxclass" : "newobj",
					"numinlets" : 3,
					"numoutlets" : 14,
					"outlettype" : [ "", "", "", "", "", "", "", "", "", "", "", "", "", "" ],
					"patching_rect" : [ 975.290330956059051, 383.0, 155.5, 22.0 ],
					"text" : "sub_for_chords"
				}

			}
, 			{
				"box" : 				{
					"comment" : "",
					"id" : "obj-627",
					"index" : 14,
					"maxclass" : "inlet",
					"numinlets" : 0,
					"numoutlets" : 1,
					"outlettype" : [ "bang" ],
					"patching_rect" : [ 1050.790330956059051, 232.0, 30.0, 30.0 ]
				}

			}
, 			{
				"box" : 				{
					"id" : "obj-628",
					"maxclass" : "newobj",
					"numinlets" : 3,
					"numoutlets" : 14,
					"outlettype" : [ "", "", "", "", "", "", "", "", "", "", "", "", "", "" ],
					"patching_rect" : [ 914.290330956059051, 272.0, 155.5, 22.0 ],
					"text" : "sub_for_chords"
				}

			}
, 			{
				"box" : 				{
					"comment" : "",
					"id" : "obj-622",
					"index" : 13,
					"maxclass" : "inlet",
					"numinlets" : 0,
					"numoutlets" : 1,
					"outlettype" : [ "bang" ],
					"patching_rect" : [ 989.854848946294396, 449.0, 30.0, 30.0 ]
				}

			}
, 			{
				"box" : 				{
					"id" : "obj-599",
					"maxclass" : "newobj",
					"numinlets" : 3,
					"numoutlets" : 14,
					"outlettype" : [ "", "", "", "", "", "", "", "", "", "", "", "", "", "" ],
					"patching_rect" : [ 853.354848946294396, 488.0, 155.5, 22.0 ],
					"text" : "sub_for_chords"
				}

			}
, 			{
				"box" : 				{
					"comment" : "",
					"id" : "obj-600",
					"index" : 12,
					"maxclass" : "inlet",
					"numinlets" : 0,
					"numoutlets" : 1,
					"outlettype" : [ "bang" ],
					"patching_rect" : [ 928.790330956059051, 343.0, 30.0, 30.0 ]
				}

			}
, 			{
				"box" : 				{
					"id" : "obj-601",
					"maxclass" : "newobj",
					"numinlets" : 3,
					"numoutlets" : 14,
					"outlettype" : [ "", "", "", "", "", "", "", "", "", "", "", "", "", "" ],
					"patching_rect" : [ 792.290330956059051, 383.0, 155.5, 22.0 ],
					"text" : "sub_for_chords"
				}

			}
, 			{
				"box" : 				{
					"comment" : "",
					"id" : "obj-602",
					"index" : 11,
					"maxclass" : "inlet",
					"numinlets" : 0,
					"numoutlets" : 1,
					"outlettype" : [ "bang" ],
					"patching_rect" : [ 867.790330956059051, 232.0, 30.0, 30.0 ]
				}

			}
, 			{
				"box" : 				{
					"id" : "obj-603",
					"maxclass" : "newobj",
					"numinlets" : 3,
					"numoutlets" : 14,
					"outlettype" : [ "", "", "", "", "", "", "", "", "", "", "", "", "", "" ],
					"patching_rect" : [ 731.290330956059051, 272.0, 155.5, 22.0 ],
					"text" : "sub_for_chords"
				}

			}
, 			{
				"box" : 				{
					"comment" : "",
					"id" : "obj-604",
					"index" : 10,
					"maxclass" : "inlet",
					"numinlets" : 0,
					"numoutlets" : 1,
					"outlettype" : [ "bang" ],
					"patching_rect" : [ 806.758071960941379, 448.0, 30.0, 30.0 ]
				}

			}
, 			{
				"box" : 				{
					"id" : "obj-605",
					"maxclass" : "newobj",
					"numinlets" : 3,
					"numoutlets" : 14,
					"outlettype" : [ "", "", "", "", "", "", "", "", "", "", "", "", "", "" ],
					"patching_rect" : [ 670.258071960941379, 488.0, 155.5, 22.0 ],
					"text" : "sub_for_chords"
				}

			}
, 			{
				"box" : 				{
					"comment" : "",
					"id" : "obj-606",
					"index" : 9,
					"maxclass" : "inlet",
					"numinlets" : 0,
					"numoutlets" : 1,
					"outlettype" : [ "bang" ],
					"patching_rect" : [ 745.693553970706034, 343.0, 30.0, 30.0 ]
				}

			}
, 			{
				"box" : 				{
					"id" : "obj-607",
					"maxclass" : "newobj",
					"numinlets" : 3,
					"numoutlets" : 14,
					"outlettype" : [ "", "", "", "", "", "", "", "", "", "", "", "", "", "" ],
					"patching_rect" : [ 609.193553970706034, 383.0, 155.5, 22.0 ],
					"text" : "sub_for_chords"
				}

			}
, 			{
				"box" : 				{
					"comment" : "",
					"id" : "obj-608",
					"index" : 8,
					"maxclass" : "inlet",
					"numinlets" : 0,
					"numoutlets" : 1,
					"outlettype" : [ "bang" ],
					"patching_rect" : [ 684.693553970706034, 232.0, 30.0, 30.0 ]
				}

			}
, 			{
				"box" : 				{
					"id" : "obj-609",
					"maxclass" : "newobj",
					"numinlets" : 3,
					"numoutlets" : 14,
					"outlettype" : [ "", "", "", "", "", "", "", "", "", "", "", "", "", "" ],
					"patching_rect" : [ 548.193553970706034, 272.0, 155.5, 22.0 ],
					"text" : "sub_for_chords"
				}

			}
, 			{
				"box" : 				{
					"comment" : "",
					"id" : "obj-592",
					"index" : 7,
					"maxclass" : "inlet",
					"numinlets" : 0,
					"numoutlets" : 1,
					"outlettype" : [ "bang" ],
					"patching_rect" : [ 623.661294975588362, 449.0, 30.0, 30.0 ]
				}

			}
, 			{
				"box" : 				{
					"id" : "obj-593",
					"maxclass" : "newobj",
					"numinlets" : 3,
					"numoutlets" : 14,
					"outlettype" : [ "", "", "", "", "", "", "", "", "", "", "", "", "", "" ],
					"patching_rect" : [ 487.161294975588362, 489.0, 155.5, 22.0 ],
					"text" : "sub_for_chords"
				}

			}
, 			{
				"box" : 				{
					"comment" : "",
					"id" : "obj-594",
					"index" : 6,
					"maxclass" : "inlet",
					"numinlets" : 0,
					"numoutlets" : 1,
					"outlettype" : [ "bang" ],
					"patching_rect" : [ 562.596776985353017, 344.0, 30.0, 30.0 ]
				}

			}
, 			{
				"box" : 				{
					"id" : "obj-595",
					"maxclass" : "newobj",
					"numinlets" : 3,
					"numoutlets" : 14,
					"outlettype" : [ "", "", "", "", "", "", "", "", "", "", "", "", "", "" ],
					"patching_rect" : [ 426.096776985353017, 384.0, 155.5, 22.0 ],
					"text" : "sub_for_chords"
				}

			}
, 			{
				"box" : 				{
					"comment" : "",
					"id" : "obj-596",
					"index" : 5,
					"maxclass" : "inlet",
					"numinlets" : 0,
					"numoutlets" : 1,
					"outlettype" : [ "bang" ],
					"patching_rect" : [ 501.596776985353017, 233.0, 30.0, 30.0 ]
				}

			}
, 			{
				"box" : 				{
					"id" : "obj-597",
					"maxclass" : "newobj",
					"numinlets" : 3,
					"numoutlets" : 14,
					"outlettype" : [ "", "", "", "", "", "", "", "", "", "", "", "", "", "" ],
					"patching_rect" : [ 365.096776985353017, 273.0, 155.5, 22.0 ],
					"text" : "sub_for_chords"
				}

			}
, 			{
				"box" : 				{
					"comment" : "",
					"id" : "obj-590",
					"index" : 4,
					"maxclass" : "inlet",
					"numinlets" : 0,
					"numoutlets" : 1,
					"outlettype" : [ "bang" ],
					"patching_rect" : [ 440.564517990235345, 449.0, 30.0, 30.0 ]
				}

			}
, 			{
				"box" : 				{
					"id" : "obj-591",
					"maxclass" : "newobj",
					"numinlets" : 3,
					"numoutlets" : 14,
					"outlettype" : [ "", "", "", "", "", "", "", "", "", "", "", "", "", "" ],
					"patching_rect" : [ 304.064517990235345, 489.0, 155.5, 22.0 ],
					"text" : "sub_for_chords"
				}

			}
, 			{
				"box" : 				{
					"comment" : "",
					"id" : "obj-588",
					"index" : 3,
					"maxclass" : "inlet",
					"numinlets" : 0,
					"numoutlets" : 1,
					"outlettype" : [ "bang" ],
					"patching_rect" : [ 379.5, 344.0, 30.0, 30.0 ]
				}

			}
, 			{
				"box" : 				{
					"id" : "obj-589",
					"maxclass" : "newobj",
					"numinlets" : 3,
					"numoutlets" : 14,
					"outlettype" : [ "", "", "", "", "", "", "", "", "", "", "", "", "", "" ],
					"patching_rect" : [ 243.0, 384.0, 155.5, 22.0 ],
					"text" : "sub_for_chords"
				}

			}
, 			{
				"box" : 				{
					"id" : "obj-587",
					"maxclass" : "message",
					"numinlets" : 2,
					"numoutlets" : 1,
					"outlettype" : [ "" ],
					"patching_rect" : [ 91.0, 225.0, 29.5, 22.0 ],
					"text" : "set"
				}

			}
, 			{
				"box" : 				{
					"id" : "obj-584",
					"maxclass" : "newobj",
					"numinlets" : 1,
					"numoutlets" : 2,
					"outlettype" : [ "", "bang" ],
					"patching_rect" : [ 187.0, 115.0, 62.0, 22.0 ],
					"text" : "trigger s b"
				}

			}
, 			{
				"box" : 				{
					"comment" : "",
					"id" : "obj-583",
					"index" : 2,
					"maxclass" : "inlet",
					"numinlets" : 0,
					"numoutlets" : 1,
					"outlettype" : [ "bang" ],
					"patching_rect" : [ 318.5, 233.0, 30.0, 30.0 ]
				}

			}
, 			{
				"box" : 				{
					"id" : "obj-572",
					"maxclass" : "newobj",
					"numinlets" : 3,
					"numoutlets" : 14,
					"outlettype" : [ "", "", "", "", "", "", "", "", "", "", "", "", "", "" ],
					"patching_rect" : [ 182.0, 273.0, 155.5, 22.0 ],
					"text" : "sub_for_chords"
				}

			}
, 			{
				"box" : 				{
					"id" : "obj-66",
					"maxclass" : "newobj",
					"numinlets" : 1,
					"numoutlets" : 16,
					"outlettype" : [ "", "", "", "", "", "", "", "", "", "", "", "", "", "", "", "" ],
					"patching_rect" : [ 182.0, 191.0, 934.483884926765086, 22.0 ],
					"saved_object_attributes" : 					{
						"filename" : "txt_parser.js",
						"parameter_enable" : 0
					}
,
					"text" : "js txt_parser.js"
				}

			}
, 			{
				"box" : 				{
					"comment" : "",
					"id" : "obj-17",
					"index" : 1,
					"maxclass" : "inlet",
					"numinlets" : 0,
					"numoutlets" : 1,
					"outlettype" : [ "" ],
					"patching_rect" : [ 187.0, 52.0, 30.0, 30.0 ]
				}

			}
 ],
		"lines" : [ 			{
				"patchline" : 				{
					"destination" : [ "obj-584", 0 ],
					"source" : [ "obj-17", 0 ]
				}

			}
, 			{
				"patchline" : 				{
					"destination" : [ "obj-66", 0 ],
					"source" : [ "obj-5", 0 ]
				}

			}
, 			{
				"patchline" : 				{
					"destination" : [ "obj-631", 0 ],
					"midpoints" : [ 191.5, 620.0, 266.5, 620.0 ],
					"source" : [ "obj-572", 0 ]
				}

			}
, 			{
				"patchline" : 				{
					"destination" : [ "obj-632", 0 ],
					"midpoints" : [ 202.0, 621.0, 300.0, 621.0 ],
					"source" : [ "obj-572", 1 ]
				}

			}
, 			{
				"patchline" : 				{
					"destination" : [ "obj-633", 0 ],
					"midpoints" : [ 223.0, 621.0, 417.5, 621.0 ],
					"source" : [ "obj-572", 3 ]
				}

			}
, 			{
				"patchline" : 				{
					"destination" : [ "obj-634", 0 ],
					"midpoints" : [ 212.5, 621.0, 384.0, 621.0 ],
					"source" : [ "obj-572", 2 ]
				}

			}
, 			{
				"patchline" : 				{
					"destination" : [ "obj-635", 0 ],
					"midpoints" : [ 265.0, 369.0, 228.0, 369.0, 228.0, 621.0, 670.5, 621.0 ],
					"source" : [ "obj-572", 7 ]
				}

			}
, 			{
				"patchline" : 				{
					"destination" : [ "obj-636", 0 ],
					"midpoints" : [ 254.5, 369.0, 228.0, 369.0, 228.0, 621.0, 637.0, 621.0 ],
					"source" : [ "obj-572", 6 ]
				}

			}
, 			{
				"patchline" : 				{
					"destination" : [ "obj-637", 0 ],
					"midpoints" : [ 244.0, 369.0, 228.0, 369.0, 228.0, 621.0, 549.0, 621.0 ],
					"source" : [ "obj-572", 5 ]
				}

			}
, 			{
				"patchline" : 				{
					"destination" : [ "obj-638", 0 ],
					"midpoints" : [ 233.5, 621.0, 515.5, 621.0 ],
					"source" : [ "obj-572", 4 ]
				}

			}
, 			{
				"patchline" : 				{
					"destination" : [ "obj-641", 0 ],
					"midpoints" : [ 328.0, 330.0, 972.0, 330.0, 972.0, 435.0, 1032.0, 435.0, 1032.0, 621.0, 1043.0, 621.0 ],
					"source" : [ "obj-572", 13 ]
				}

			}
, 			{
				"patchline" : 				{
					"destination" : [ "obj-642", 0 ],
					"midpoints" : [ 317.5, 330.0, 789.0, 330.0, 789.0, 435.0, 849.0, 435.0, 849.0, 621.0, 1009.5, 621.0 ],
					"source" : [ "obj-572", 12 ]
				}

			}
, 			{
				"patchline" : 				{
					"destination" : [ "obj-643", 0 ],
					"midpoints" : [ 307.0, 330.0, 789.0, 330.0, 789.0, 435.0, 849.0, 435.0, 849.0, 621.0, 926.758071960941379, 621.0 ],
					"source" : [ "obj-572", 11 ]
				}

			}
, 			{
				"patchline" : 				{
					"destination" : [ "obj-644", 0 ],
					"midpoints" : [ 296.5, 330.0, 789.0, 330.0, 789.0, 435.0, 849.0, 435.0, 849.0, 621.0, 893.258071960941379, 621.0 ],
					"source" : [ "obj-572", 10 ]
				}

			}
, 			{
				"patchline" : 				{
					"destination" : [ "obj-645", 0 ],
					"midpoints" : [ 286.0, 330.0, 606.0, 330.0, 606.0, 435.0, 666.0, 435.0, 666.0, 621.0, 799.258071960941379, 621.0 ],
					"source" : [ "obj-572", 9 ]
				}

			}
, 			{
				"patchline" : 				{
					"destination" : [ "obj-646", 0 ],
					"midpoints" : [ 275.5, 369.0, 228.0, 369.0, 228.0, 621.0, 765.758071960941379, 621.0 ],
					"source" : [ "obj-572", 8 ]
				}

			}
, 			{
				"patchline" : 				{
					"destination" : [ "obj-572", 2 ],
					"source" : [ "obj-583", 0 ]
				}

			}
, 			{
				"patchline" : 				{
					"destination" : [ "obj-587", 0 ],
					"midpoints" : [ 239.5, 177.0, 100.5, 177.0 ],
					"source" : [ "obj-584", 1 ]
				}

			}
, 			{
				"patchline" : 				{
					"destination" : [ "obj-66", 0 ],
					"source" : [ "obj-584", 0 ]
				}

			}
, 			{
				"patchline" : 				{
					"destination" : [ "obj-572", 1 ],
					"midpoints" : [ 100.5, 257.0, 259.75, 257.0 ],
					"order" : 15,
					"source" : [ "obj-587", 0 ]
				}

			}
, 			{
				"patchline" : 				{
					"destination" : [ "obj-589", 1 ],
					"midpoints" : [ 100.5, 375.0, 320.75, 375.0 ],
					"order" : 14,
					"source" : [ "obj-587", 0 ]
				}

			}
, 			{
				"patchline" : 				{
					"destination" : [ "obj-591", 1 ],
					"midpoints" : [ 100.5, 478.0, 381.814517990235345, 478.0 ],
					"order" : 13,
					"source" : [ "obj-587", 0 ]
				}

			}
, 			{
				"patchline" : 				{
					"destination" : [ "obj-593", 1 ],
					"midpoints" : [ 100.5, 477.0, 564.911294975588362, 477.0 ],
					"order" : 10,
					"source" : [ "obj-587", 0 ]
				}

			}
, 			{
				"patchline" : 				{
					"destination" : [ "obj-595", 1 ],
					"midpoints" : [ 100.5, 372.0, 503.846776985353017, 372.0 ],
					"order" : 11,
					"source" : [ "obj-587", 0 ]
				}

			}
, 			{
				"patchline" : 				{
					"destination" : [ "obj-597", 1 ],
					"midpoints" : [ 100.5, 257.0, 442.846776985353017, 257.0 ],
					"order" : 12,
					"source" : [ "obj-587", 0 ]
				}

			}
, 			{
				"patchline" : 				{
					"destination" : [ "obj-599", 1 ],
					"midpoints" : [ 100.5, 475.0, 931.104848946294396, 475.0 ],
					"order" : 4,
					"source" : [ "obj-587", 0 ]
				}

			}
, 			{
				"patchline" : 				{
					"destination" : [ "obj-601", 1 ],
					"midpoints" : [ 100.5, 364.0, 870.040330956059051, 374.0 ],
					"order" : 5,
					"source" : [ "obj-587", 0 ]
				}

			}
, 			{
				"patchline" : 				{
					"destination" : [ "obj-603", 1 ],
					"midpoints" : [ 100.5, 257.0, 809.040330956059051, 257.0 ],
					"order" : 6,
					"source" : [ "obj-587", 0 ]
				}

			}
, 			{
				"patchline" : 				{
					"destination" : [ "obj-605", 1 ],
					"midpoints" : [ 100.5, 478.0, 748.008071960941379, 478.0 ],
					"order" : 7,
					"source" : [ "obj-587", 0 ]
				}

			}
, 			{
				"patchline" : 				{
					"destination" : [ "obj-607", 1 ],
					"midpoints" : [ 100.5, 375.0, 686.943553970706034, 375.0 ],
					"order" : 8,
					"source" : [ "obj-587", 0 ]
				}

			}
, 			{
				"patchline" : 				{
					"destination" : [ "obj-609", 1 ],
					"midpoints" : [ 100.5, 257.0, 625.943553970706034, 257.0 ],
					"order" : 9,
					"source" : [ "obj-587", 0 ]
				}

			}
, 			{
				"patchline" : 				{
					"destination" : [ "obj-624", 1 ],
					"midpoints" : [ 100.5, 475.0, 1114.104848946294396, 475.0 ],
					"order" : 1,
					"source" : [ "obj-587", 0 ]
				}

			}
, 			{
				"patchline" : 				{
					"destination" : [ "obj-626", 1 ],
					"midpoints" : [ 100.5, 368.0, 1053.040330956059051, 368.0 ],
					"order" : 2,
					"source" : [ "obj-587", 0 ]
				}

			}
, 			{
				"patchline" : 				{
					"destination" : [ "obj-628", 1 ],
					"midpoints" : [ 100.5, 256.0, 992.040330956059051, 256.0 ],
					"order" : 3,
					"source" : [ "obj-587", 0 ]
				}

			}
, 			{
				"patchline" : 				{
					"destination" : [ "obj-630", 1 ],
					"midpoints" : [ 100.5, 258.0, 1176.040330956059051, 258.0 ],
					"order" : 0,
					"source" : [ "obj-587", 0 ]
				}

			}
, 			{
				"patchline" : 				{
					"destination" : [ "obj-589", 2 ],
					"source" : [ "obj-588", 0 ]
				}

			}
, 			{
				"patchline" : 				{
					"destination" : [ "obj-631", 0 ],
					"midpoints" : [ 252.5, 426.0, 189.0, 426.0, 189.0, 616.0, 266.5, 616.0 ],
					"source" : [ "obj-589", 0 ]
				}

			}
, 			{
				"patchline" : 				{
					"destination" : [ "obj-632", 0 ],
					"midpoints" : [ 263.0, 621.0, 300.0, 621.0 ],
					"source" : [ "obj-589", 1 ]
				}

			}
, 			{
				"patchline" : 				{
					"destination" : [ "obj-633", 0 ],
					"midpoints" : [ 284.0, 621.0, 417.5, 621.0 ],
					"source" : [ "obj-589", 3 ]
				}

			}
, 			{
				"patchline" : 				{
					"destination" : [ "obj-634", 0 ],
					"midpoints" : [ 273.5, 621.0, 384.0, 621.0 ],
					"source" : [ "obj-589", 2 ]
				}

			}
, 			{
				"patchline" : 				{
					"destination" : [ "obj-635", 0 ],
					"midpoints" : [ 326.0, 435.0, 666.0, 435.0, 666.0, 630.0, 670.5, 630.0 ],
					"source" : [ "obj-589", 7 ]
				}

			}
, 			{
				"patchline" : 				{
					"destination" : [ "obj-636", 0 ],
					"midpoints" : [ 315.5, 435.0, 483.0, 435.0, 483.0, 621.0, 637.0, 621.0 ],
					"source" : [ "obj-589", 6 ]
				}

			}
, 			{
				"patchline" : 				{
					"destination" : [ "obj-637", 0 ],
					"midpoints" : [ 305.0, 474.0, 291.0, 474.0, 291.0, 621.0, 549.0, 621.0 ],
					"source" : [ "obj-589", 5 ]
				}

			}
, 			{
				"patchline" : 				{
					"destination" : [ "obj-638", 0 ],
					"midpoints" : [ 294.5, 621.0, 515.5, 621.0 ],
					"source" : [ "obj-589", 4 ]
				}

			}
, 			{
				"patchline" : 				{
					"destination" : [ "obj-641", 0 ],
					"midpoints" : [ 389.0, 435.0, 1032.0, 435.0, 1032.0, 621.0, 1043.0, 621.0 ],
					"source" : [ "obj-589", 13 ]
				}

			}
, 			{
				"patchline" : 				{
					"destination" : [ "obj-642", 0 ],
					"midpoints" : [ 378.5, 435.0, 849.0, 435.0, 849.0, 621.0, 1009.5, 621.0 ],
					"source" : [ "obj-589", 12 ]
				}

			}
, 			{
				"patchline" : 				{
					"destination" : [ "obj-643", 0 ],
					"midpoints" : [ 368.0, 435.0, 849.0, 435.0, 849.0, 621.0, 926.758071960941379, 621.0 ],
					"source" : [ "obj-589", 11 ]
				}

			}
, 			{
				"patchline" : 				{
					"destination" : [ "obj-644", 0 ],
					"midpoints" : [ 357.5, 435.0, 849.0, 435.0, 849.0, 621.0, 893.258071960941379, 621.0 ],
					"source" : [ "obj-589", 10 ]
				}

			}
, 			{
				"patchline" : 				{
					"destination" : [ "obj-645", 0 ],
					"midpoints" : [ 347.0, 435.0, 666.0, 435.0, 666.0, 621.0, 799.258071960941379, 621.0 ],
					"source" : [ "obj-589", 9 ]
				}

			}
, 			{
				"patchline" : 				{
					"destination" : [ "obj-646", 0 ],
					"midpoints" : [ 336.5, 435.0, 666.0, 435.0, 666.0, 621.0, 765.758071960941379, 621.0 ],
					"source" : [ "obj-589", 8 ]
				}

			}
, 			{
				"patchline" : 				{
					"destination" : [ "obj-591", 2 ],
					"source" : [ "obj-590", 0 ]
				}

			}
, 			{
				"patchline" : 				{
					"destination" : [ "obj-631", 0 ],
					"midpoints" : [ 313.564517990235345, 524.0, 266.5, 524.0 ],
					"source" : [ "obj-591", 0 ]
				}

			}
, 			{
				"patchline" : 				{
					"destination" : [ "obj-632", 0 ],
					"midpoints" : [ 324.064517990235345, 621.0, 300.0, 621.0 ],
					"source" : [ "obj-591", 1 ]
				}

			}
, 			{
				"patchline" : 				{
					"destination" : [ "obj-633", 0 ],
					"midpoints" : [ 345.064517990235345, 621.0, 417.5, 621.0 ],
					"source" : [ "obj-591", 3 ]
				}

			}
, 			{
				"patchline" : 				{
					"destination" : [ "obj-634", 0 ],
					"midpoints" : [ 334.564517990235345, 621.0, 384.0, 621.0 ],
					"source" : [ "obj-591", 2 ]
				}

			}
, 			{
				"patchline" : 				{
					"destination" : [ "obj-635", 0 ],
					"midpoints" : [ 387.064517990235345, 621.0, 670.5, 621.0 ],
					"source" : [ "obj-591", 7 ]
				}

			}
, 			{
				"patchline" : 				{
					"destination" : [ "obj-636", 0 ],
					"midpoints" : [ 376.564517990235345, 621.0, 637.0, 621.0 ],
					"source" : [ "obj-591", 6 ]
				}

			}
, 			{
				"patchline" : 				{
					"destination" : [ "obj-637", 0 ],
					"midpoints" : [ 366.064517990235345, 621.0, 549.0, 621.0 ],
					"source" : [ "obj-591", 5 ]
				}

			}
, 			{
				"patchline" : 				{
					"destination" : [ "obj-638", 0 ],
					"midpoints" : [ 355.564517990235345, 621.0, 515.5, 621.0 ],
					"source" : [ "obj-591", 4 ]
				}

			}
, 			{
				"patchline" : 				{
					"destination" : [ "obj-641", 0 ],
					"midpoints" : [ 450.064517990235345, 621.0, 1043.0, 621.0 ],
					"source" : [ "obj-591", 13 ]
				}

			}
, 			{
				"patchline" : 				{
					"destination" : [ "obj-642", 0 ],
					"midpoints" : [ 439.564517990235345, 621.0, 1009.5, 621.0 ],
					"source" : [ "obj-591", 12 ]
				}

			}
, 			{
				"patchline" : 				{
					"destination" : [ "obj-643", 0 ],
					"midpoints" : [ 429.064517990235345, 621.0, 926.758071960941379, 621.0 ],
					"source" : [ "obj-591", 11 ]
				}

			}
, 			{
				"patchline" : 				{
					"destination" : [ "obj-644", 0 ],
					"midpoints" : [ 418.564517990235345, 621.0, 893.258071960941379, 621.0 ],
					"source" : [ "obj-591", 10 ]
				}

			}
, 			{
				"patchline" : 				{
					"destination" : [ "obj-645", 0 ],
					"midpoints" : [ 408.064517990235345, 621.0, 799.258071960941379, 621.0 ],
					"source" : [ "obj-591", 9 ]
				}

			}
, 			{
				"patchline" : 				{
					"destination" : [ "obj-646", 0 ],
					"midpoints" : [ 397.564517990235345, 621.0, 765.758071960941379, 621.0 ],
					"source" : [ "obj-591", 8 ]
				}

			}
, 			{
				"patchline" : 				{
					"destination" : [ "obj-593", 2 ],
					"source" : [ "obj-592", 0 ]
				}

			}
, 			{
				"patchline" : 				{
					"destination" : [ "obj-631", 0 ],
					"midpoints" : [ 496.661294975588362, 526.0, 266.5, 526.0 ],
					"source" : [ "obj-593", 0 ]
				}

			}
, 			{
				"patchline" : 				{
					"destination" : [ "obj-632", 0 ],
					"midpoints" : [ 507.161294975588362, 621.0, 300.0, 621.0 ],
					"source" : [ "obj-593", 1 ]
				}

			}
, 			{
				"patchline" : 				{
					"destination" : [ "obj-633", 0 ],
					"midpoints" : [ 528.161294975588362, 621.0, 417.5, 621.0 ],
					"source" : [ "obj-593", 3 ]
				}

			}
, 			{
				"patchline" : 				{
					"destination" : [ "obj-634", 0 ],
					"midpoints" : [ 517.661294975588362, 621.0, 384.0, 621.0 ],
					"source" : [ "obj-593", 2 ]
				}

			}
, 			{
				"patchline" : 				{
					"destination" : [ "obj-635", 0 ],
					"midpoints" : [ 570.161294975588362, 621.0, 670.5, 621.0 ],
					"source" : [ "obj-593", 7 ]
				}

			}
, 			{
				"patchline" : 				{
					"destination" : [ "obj-636", 0 ],
					"midpoints" : [ 559.661294975588362, 621.0, 637.0, 621.0 ],
					"source" : [ "obj-593", 6 ]
				}

			}
, 			{
				"patchline" : 				{
					"destination" : [ "obj-637", 0 ],
					"source" : [ "obj-593", 5 ]
				}

			}
, 			{
				"patchline" : 				{
					"destination" : [ "obj-638", 0 ],
					"midpoints" : [ 538.661294975588362, 621.0, 515.5, 621.0 ],
					"source" : [ "obj-593", 4 ]
				}

			}
, 			{
				"patchline" : 				{
					"destination" : [ "obj-641", 0 ],
					"midpoints" : [ 633.161294975588362, 621.0, 1043.0, 621.0 ],
					"source" : [ "obj-593", 13 ]
				}

			}
, 			{
				"patchline" : 				{
					"destination" : [ "obj-642", 0 ],
					"midpoints" : [ 622.661294975588362, 621.0, 1009.5, 621.0 ],
					"source" : [ "obj-593", 12 ]
				}

			}
, 			{
				"patchline" : 				{
					"destination" : [ "obj-643", 0 ],
					"midpoints" : [ 612.161294975588362, 621.0, 926.758071960941379, 621.0 ],
					"source" : [ "obj-593", 11 ]
				}

			}
, 			{
				"patchline" : 				{
					"destination" : [ "obj-644", 0 ],
					"midpoints" : [ 601.661294975588362, 621.0, 893.258071960941379, 621.0 ],
					"source" : [ "obj-593", 10 ]
				}

			}
, 			{
				"patchline" : 				{
					"destination" : [ "obj-645", 0 ],
					"midpoints" : [ 591.161294975588362, 621.0, 799.258071960941379, 621.0 ],
					"source" : [ "obj-593", 9 ]
				}

			}
, 			{
				"patchline" : 				{
					"destination" : [ "obj-646", 0 ],
					"midpoints" : [ 580.661294975588362, 621.0, 765.758071960941379, 621.0 ],
					"source" : [ "obj-593", 8 ]
				}

			}
, 			{
				"patchline" : 				{
					"destination" : [ "obj-595", 2 ],
					"source" : [ "obj-594", 0 ]
				}

			}
, 			{
				"patchline" : 				{
					"destination" : [ "obj-631", 0 ],
					"midpoints" : [ 435.596776985353017, 430.0, 192.0, 430.0, 192.0, 616.0, 266.5, 616.0 ],
					"source" : [ "obj-595", 0 ]
				}

			}
, 			{
				"patchline" : 				{
					"destination" : [ "obj-632", 0 ],
					"midpoints" : [ 446.096776985353017, 435.0, 291.0, 435.0, 291.0, 621.0, 300.0, 621.0 ],
					"source" : [ "obj-595", 1 ]
				}

			}
, 			{
				"patchline" : 				{
					"destination" : [ "obj-633", 0 ],
					"midpoints" : [ 467.096776985353017, 435.0, 480.0, 435.0, 480.0, 489.0, 471.0, 489.0, 471.0, 621.0, 417.5, 621.0 ],
					"source" : [ "obj-595", 3 ]
				}

			}
, 			{
				"patchline" : 				{
					"destination" : [ "obj-634", 0 ],
					"midpoints" : [ 456.596776985353017, 435.0, 480.0, 435.0, 480.0, 489.0, 471.0, 489.0, 471.0, 621.0, 384.0, 621.0 ],
					"source" : [ "obj-595", 2 ]
				}

			}
, 			{
				"patchline" : 				{
					"destination" : [ "obj-635", 0 ],
					"midpoints" : [ 509.096776985353017, 435.0, 666.0, 435.0, 666.0, 630.0, 670.5, 630.0 ],
					"source" : [ "obj-595", 7 ]
				}

			}
, 			{
				"patchline" : 				{
					"destination" : [ "obj-636", 0 ],
					"midpoints" : [ 498.596776985353017, 474.0, 474.0, 474.0, 474.0, 621.0, 637.0, 621.0 ],
					"source" : [ "obj-595", 6 ]
				}

			}
, 			{
				"patchline" : 				{
					"destination" : [ "obj-637", 0 ],
					"midpoints" : [ 488.096776985353017, 474.0, 474.0, 474.0, 474.0, 621.0, 549.0, 621.0 ],
					"source" : [ "obj-595", 5 ]
				}

			}
, 			{
				"patchline" : 				{
					"destination" : [ "obj-638", 0 ],
					"midpoints" : [ 477.596776985353017, 435.0, 483.0, 435.0, 483.0, 621.0, 515.5, 621.0 ],
					"source" : [ "obj-595", 4 ]
				}

			}
, 			{
				"patchline" : 				{
					"destination" : [ "obj-641", 0 ],
					"midpoints" : [ 572.096776985353017, 435.0, 1032.0, 435.0, 1032.0, 621.0, 1043.0, 621.0 ],
					"source" : [ "obj-595", 13 ]
				}

			}
, 			{
				"patchline" : 				{
					"destination" : [ "obj-642", 0 ],
					"midpoints" : [ 561.596776985353017, 435.0, 849.0, 435.0, 849.0, 621.0, 1009.5, 621.0 ],
					"source" : [ "obj-595", 12 ]
				}

			}
, 			{
				"patchline" : 				{
					"destination" : [ "obj-643", 0 ],
					"midpoints" : [ 551.096776985353017, 435.0, 849.0, 435.0, 849.0, 621.0, 926.758071960941379, 621.0 ],
					"source" : [ "obj-595", 11 ]
				}

			}
, 			{
				"patchline" : 				{
					"destination" : [ "obj-644", 0 ],
					"midpoints" : [ 540.596776985353017, 435.0, 849.0, 435.0, 849.0, 621.0, 893.258071960941379, 621.0 ],
					"source" : [ "obj-595", 10 ]
				}

			}
, 			{
				"patchline" : 				{
					"destination" : [ "obj-645", 0 ],
					"midpoints" : [ 530.096776985353017, 435.0, 666.0, 435.0, 666.0, 621.0, 799.258071960941379, 621.0 ],
					"source" : [ "obj-595", 9 ]
				}

			}
, 			{
				"patchline" : 				{
					"destination" : [ "obj-646", 0 ],
					"midpoints" : [ 519.596776985353017, 435.0, 666.0, 435.0, 666.0, 621.0, 765.758071960941379, 621.0 ],
					"source" : [ "obj-595", 8 ]
				}

			}
, 			{
				"patchline" : 				{
					"destination" : [ "obj-597", 2 ],
					"source" : [ "obj-596", 0 ]
				}

			}
, 			{
				"patchline" : 				{
					"destination" : [ "obj-631", 0 ],
					"midpoints" : [ 374.596776985353017, 314.0, 190.0, 314.0, 190.0, 619.0, 266.5, 619.0 ],
					"source" : [ "obj-597", 0 ]
				}

			}
, 			{
				"patchline" : 				{
					"destination" : [ "obj-632", 0 ],
					"midpoints" : [ 385.096776985353017, 330.0, 420.0, 330.0, 420.0, 384.0, 408.0, 384.0, 408.0, 474.0, 291.0, 474.0, 291.0, 621.0, 300.0, 621.0 ],
					"source" : [ "obj-597", 1 ]
				}

			}
, 			{
				"patchline" : 				{
					"destination" : [ "obj-633", 0 ],
					"midpoints" : [ 406.096776985353017, 330.0, 423.0, 330.0, 423.0, 435.0, 480.0, 435.0, 480.0, 489.0, 471.0, 489.0, 471.0, 621.0, 417.5, 621.0 ],
					"source" : [ "obj-597", 3 ]
				}

			}
, 			{
				"patchline" : 				{
					"destination" : [ "obj-634", 0 ],
					"midpoints" : [ 395.596776985353017, 330.0, 423.0, 330.0, 423.0, 435.0, 480.0, 435.0, 480.0, 489.0, 471.0, 489.0, 471.0, 621.0, 384.0, 621.0 ],
					"source" : [ "obj-597", 2 ]
				}

			}
, 			{
				"patchline" : 				{
					"destination" : [ "obj-635", 0 ],
					"midpoints" : [ 448.096776985353017, 330.0, 606.0, 330.0, 606.0, 435.0, 666.0, 435.0, 666.0, 630.0, 670.5, 630.0 ],
					"source" : [ "obj-597", 7 ]
				}

			}
, 			{
				"patchline" : 				{
					"destination" : [ "obj-636", 0 ],
					"midpoints" : [ 437.596776985353017, 369.0, 423.0, 369.0, 423.0, 435.0, 483.0, 435.0, 483.0, 621.0, 637.0, 621.0 ],
					"source" : [ "obj-597", 6 ]
				}

			}
, 			{
				"patchline" : 				{
					"destination" : [ "obj-637", 0 ],
					"midpoints" : [ 427.096776985353017, 369.0, 411.0, 369.0, 411.0, 435.0, 483.0, 435.0, 483.0, 621.0, 549.0, 621.0 ],
					"source" : [ "obj-597", 5 ]
				}

			}
, 			{
				"patchline" : 				{
					"destination" : [ "obj-638", 0 ],
					"midpoints" : [ 416.596776985353017, 330.0, 423.0, 330.0, 423.0, 435.0, 483.0, 435.0, 483.0, 621.0, 515.5, 621.0 ],
					"source" : [ "obj-597", 4 ]
				}

			}
, 			{
				"patchline" : 				{
					"destination" : [ "obj-641", 0 ],
					"midpoints" : [ 511.096776985353017, 330.0, 972.0, 330.0, 972.0, 435.0, 1032.0, 435.0, 1032.0, 621.0, 1043.0, 621.0 ],
					"source" : [ "obj-597", 13 ]
				}

			}
, 			{
				"patchline" : 				{
					"destination" : [ "obj-642", 0 ],
					"midpoints" : [ 500.596776985353017, 330.0, 789.0, 330.0, 789.0, 435.0, 849.0, 435.0, 849.0, 621.0, 1009.5, 621.0 ],
					"source" : [ "obj-597", 12 ]
				}

			}
, 			{
				"patchline" : 				{
					"destination" : [ "obj-643", 0 ],
					"midpoints" : [ 490.096776985353017, 330.0, 789.0, 330.0, 789.0, 435.0, 849.0, 435.0, 849.0, 621.0, 926.758071960941379, 621.0 ],
					"source" : [ "obj-597", 11 ]
				}

			}
, 			{
				"patchline" : 				{
					"destination" : [ "obj-644", 0 ],
					"midpoints" : [ 479.596776985353017, 330.0, 789.0, 330.0, 789.0, 435.0, 849.0, 435.0, 849.0, 621.0, 893.258071960941379, 621.0 ],
					"source" : [ "obj-597", 10 ]
				}

			}
, 			{
				"patchline" : 				{
					"destination" : [ "obj-645", 0 ],
					"midpoints" : [ 469.096776985353017, 330.0, 606.0, 330.0, 606.0, 435.0, 666.0, 435.0, 666.0, 621.0, 799.258071960941379, 621.0 ],
					"source" : [ "obj-597", 9 ]
				}

			}
, 			{
				"patchline" : 				{
					"destination" : [ "obj-646", 0 ],
					"midpoints" : [ 458.596776985353017, 330.0, 606.0, 330.0, 606.0, 435.0, 666.0, 435.0, 666.0, 621.0, 765.758071960941379, 621.0 ],
					"source" : [ "obj-597", 8 ]
				}

			}
, 			{
				"patchline" : 				{
					"destination" : [ "obj-631", 0 ],
					"midpoints" : [ 862.854848946294396, 522.0, 266.5, 529.0 ],
					"source" : [ "obj-599", 0 ]
				}

			}
, 			{
				"patchline" : 				{
					"destination" : [ "obj-632", 0 ],
					"midpoints" : [ 873.354848946294396, 621.0, 300.0, 621.0 ],
					"source" : [ "obj-599", 1 ]
				}

			}
, 			{
				"patchline" : 				{
					"destination" : [ "obj-633", 0 ],
					"midpoints" : [ 894.354848946294396, 621.0, 417.5, 621.0 ],
					"source" : [ "obj-599", 3 ]
				}

			}
, 			{
				"patchline" : 				{
					"destination" : [ "obj-634", 0 ],
					"midpoints" : [ 883.854848946294396, 621.0, 384.0, 621.0 ],
					"source" : [ "obj-599", 2 ]
				}

			}
, 			{
				"patchline" : 				{
					"destination" : [ "obj-635", 0 ],
					"midpoints" : [ 936.354848946294396, 621.0, 670.5, 621.0 ],
					"source" : [ "obj-599", 7 ]
				}

			}
, 			{
				"patchline" : 				{
					"destination" : [ "obj-636", 0 ],
					"midpoints" : [ 925.854848946294396, 621.0, 637.0, 621.0 ],
					"source" : [ "obj-599", 6 ]
				}

			}
, 			{
				"patchline" : 				{
					"destination" : [ "obj-637", 0 ],
					"midpoints" : [ 915.354848946294396, 621.0, 549.0, 621.0 ],
					"source" : [ "obj-599", 5 ]
				}

			}
, 			{
				"patchline" : 				{
					"destination" : [ "obj-638", 0 ],
					"midpoints" : [ 904.854848946294396, 621.0, 515.5, 621.0 ],
					"source" : [ "obj-599", 4 ]
				}

			}
, 			{
				"patchline" : 				{
					"destination" : [ "obj-641", 0 ],
					"midpoints" : [ 999.354848946294396, 621.0, 1043.0, 621.0 ],
					"source" : [ "obj-599", 13 ]
				}

			}
, 			{
				"patchline" : 				{
					"destination" : [ "obj-642", 0 ],
					"midpoints" : [ 988.854848946294396, 621.0, 1009.5, 621.0 ],
					"source" : [ "obj-599", 12 ]
				}

			}
, 			{
				"patchline" : 				{
					"destination" : [ "obj-643", 0 ],
					"midpoints" : [ 978.354848946294396, 621.0, 926.758071960941379, 621.0 ],
					"source" : [ "obj-599", 11 ]
				}

			}
, 			{
				"patchline" : 				{
					"destination" : [ "obj-644", 0 ],
					"midpoints" : [ 967.854848946294396, 621.0, 893.258071960941379, 621.0 ],
					"source" : [ "obj-599", 10 ]
				}

			}
, 			{
				"patchline" : 				{
					"destination" : [ "obj-645", 0 ],
					"midpoints" : [ 957.354848946294396, 621.0, 799.258071960941379, 621.0 ],
					"source" : [ "obj-599", 9 ]
				}

			}
, 			{
				"patchline" : 				{
					"destination" : [ "obj-646", 0 ],
					"midpoints" : [ 946.854848946294396, 621.0, 765.758071960941379, 621.0 ],
					"source" : [ "obj-599", 8 ]
				}

			}
, 			{
				"patchline" : 				{
					"destination" : [ "obj-601", 2 ],
					"source" : [ "obj-600", 0 ]
				}

			}
, 			{
				"patchline" : 				{
					"destination" : [ "obj-631", 0 ],
					"midpoints" : [ 801.790330956059051, 429.0, 193.0, 429.0, 193.0, 620.0, 266.5, 620.0 ],
					"source" : [ "obj-601", 0 ]
				}

			}
, 			{
				"patchline" : 				{
					"destination" : [ "obj-632", 0 ],
					"midpoints" : [ 812.290330956059051, 435.0, 291.0, 435.0, 291.0, 621.0, 300.0, 621.0 ],
					"source" : [ "obj-601", 1 ]
				}

			}
, 			{
				"patchline" : 				{
					"destination" : [ "obj-633", 0 ],
					"midpoints" : [ 833.290330956059051, 435.0, 480.0, 435.0, 480.0, 489.0, 471.0, 489.0, 471.0, 621.0, 417.5, 621.0 ],
					"source" : [ "obj-601", 3 ]
				}

			}
, 			{
				"patchline" : 				{
					"destination" : [ "obj-634", 0 ],
					"midpoints" : [ 822.790330956059051, 435.0, 480.0, 435.0, 480.0, 489.0, 471.0, 489.0, 471.0, 621.0, 384.0, 621.0 ],
					"source" : [ "obj-601", 2 ]
				}

			}
, 			{
				"patchline" : 				{
					"destination" : [ "obj-635", 0 ],
					"midpoints" : [ 875.290330956059051, 474.0, 840.0, 474.0, 840.0, 621.0, 670.5, 621.0 ],
					"source" : [ "obj-601", 7 ]
				}

			}
, 			{
				"patchline" : 				{
					"destination" : [ "obj-636", 0 ],
					"midpoints" : [ 864.790330956059051, 474.0, 840.0, 474.0, 840.0, 621.0, 637.0, 621.0 ],
					"source" : [ "obj-601", 6 ]
				}

			}
, 			{
				"patchline" : 				{
					"destination" : [ "obj-637", 0 ],
					"midpoints" : [ 854.290330956059051, 474.0, 840.0, 474.0, 840.0, 621.0, 549.0, 621.0 ],
					"source" : [ "obj-601", 5 ]
				}

			}
, 			{
				"patchline" : 				{
					"destination" : [ "obj-638", 0 ],
					"midpoints" : [ 843.790330956059051, 435.0, 663.0, 435.0, 663.0, 489.0, 654.0, 489.0, 654.0, 621.0, 515.5, 621.0 ],
					"source" : [ "obj-601", 4 ]
				}

			}
, 			{
				"patchline" : 				{
					"destination" : [ "obj-641", 0 ],
					"midpoints" : [ 938.290330956059051, 435.0, 1032.0, 435.0, 1032.0, 621.0, 1043.0, 621.0 ],
					"source" : [ "obj-601", 13 ]
				}

			}
, 			{
				"patchline" : 				{
					"destination" : [ "obj-642", 0 ],
					"midpoints" : [ 927.790330956059051, 435.0, 1029.0, 435.0, 1029.0, 489.0, 1020.0, 489.0, 1020.0, 621.0, 1009.5, 621.0 ],
					"source" : [ "obj-601", 12 ]
				}

			}
, 			{
				"patchline" : 				{
					"destination" : [ "obj-643", 0 ],
					"source" : [ "obj-601", 11 ]
				}

			}
, 			{
				"patchline" : 				{
					"destination" : [ "obj-644", 0 ],
					"midpoints" : [ 906.790330956059051, 474.0, 840.0, 474.0, 840.0, 621.0, 893.258071960941379, 621.0 ],
					"source" : [ "obj-601", 10 ]
				}

			}
, 			{
				"patchline" : 				{
					"destination" : [ "obj-645", 0 ],
					"midpoints" : [ 896.290330956059051, 474.0, 840.0, 474.0, 840.0, 621.0, 799.258071960941379, 621.0 ],
					"source" : [ "obj-601", 9 ]
				}

			}
, 			{
				"patchline" : 				{
					"destination" : [ "obj-646", 0 ],
					"midpoints" : [ 885.790330956059051, 474.0, 840.0, 474.0, 840.0, 621.0, 765.758071960941379, 621.0 ],
					"source" : [ "obj-601", 8 ]
				}

			}
, 			{
				"patchline" : 				{
					"destination" : [ "obj-603", 2 ],
					"source" : [ "obj-602", 0 ]
				}

			}
, 			{
				"patchline" : 				{
					"destination" : [ "obj-631", 0 ],
					"midpoints" : [ 740.790330956059051, 319.0, 190.0, 319.0, 190.0, 620.0, 266.5, 620.0 ],
					"source" : [ "obj-603", 0 ]
				}

			}
, 			{
				"patchline" : 				{
					"destination" : [ "obj-632", 0 ],
					"midpoints" : [ 751.290330956059051, 330.0, 420.0, 330.0, 420.0, 384.0, 408.0, 384.0, 408.0, 474.0, 291.0, 474.0, 291.0, 621.0, 300.0, 621.0 ],
					"source" : [ "obj-603", 1 ]
				}

			}
, 			{
				"patchline" : 				{
					"destination" : [ "obj-633", 0 ],
					"midpoints" : [ 772.290330956059051, 330.0, 603.0, 330.0, 603.0, 384.0, 591.0, 384.0, 591.0, 474.0, 474.0, 474.0, 474.0, 621.0, 417.5, 621.0 ],
					"source" : [ "obj-603", 3 ]
				}

			}
, 			{
				"patchline" : 				{
					"destination" : [ "obj-634", 0 ],
					"midpoints" : [ 761.790330956059051, 330.0, 603.0, 330.0, 603.0, 384.0, 591.0, 384.0, 591.0, 474.0, 474.0, 474.0, 474.0, 621.0, 384.0, 621.0 ],
					"source" : [ "obj-603", 2 ]
				}

			}
, 			{
				"patchline" : 				{
					"destination" : [ "obj-635", 0 ],
					"midpoints" : [ 814.290330956059051, 369.0, 777.0, 369.0, 777.0, 474.0, 657.0, 474.0, 657.0, 621.0, 670.5, 621.0 ],
					"source" : [ "obj-603", 7 ]
				}

			}
, 			{
				"patchline" : 				{
					"destination" : [ "obj-636", 0 ],
					"midpoints" : [ 803.790330956059051, 369.0, 777.0, 369.0, 777.0, 474.0, 657.0, 474.0, 657.0, 621.0, 637.0, 621.0 ],
					"source" : [ "obj-603", 6 ]
				}

			}
, 			{
				"patchline" : 				{
					"destination" : [ "obj-637", 0 ],
					"midpoints" : [ 793.290330956059051, 369.0, 777.0, 369.0, 777.0, 474.0, 657.0, 474.0, 657.0, 621.0, 549.0, 621.0 ],
					"source" : [ "obj-603", 5 ]
				}

			}
, 			{
				"patchline" : 				{
					"destination" : [ "obj-638", 0 ],
					"midpoints" : [ 782.790330956059051, 330.0, 786.0, 330.0, 786.0, 384.0, 774.0, 384.0, 774.0, 474.0, 657.0, 474.0, 657.0, 621.0, 515.5, 621.0 ],
					"source" : [ "obj-603", 4 ]
				}

			}
, 			{
				"patchline" : 				{
					"destination" : [ "obj-641", 0 ],
					"midpoints" : [ 877.290330956059051, 330.0, 972.0, 330.0, 972.0, 435.0, 1032.0, 435.0, 1032.0, 621.0, 1043.0, 621.0 ],
					"source" : [ "obj-603", 13 ]
				}

			}
, 			{
				"patchline" : 				{
					"destination" : [ "obj-642", 0 ],
					"midpoints" : [ 866.790330956059051, 330.0, 972.0, 330.0, 972.0, 435.0, 1029.0, 435.0, 1029.0, 489.0, 1020.0, 489.0, 1020.0, 621.0, 1009.5, 621.0 ],
					"source" : [ "obj-603", 12 ]
				}

			}
, 			{
				"patchline" : 				{
					"destination" : [ "obj-643", 0 ],
					"midpoints" : [ 856.290330956059051, 369.0, 789.0, 369.0, 789.0, 435.0, 849.0, 435.0, 849.0, 621.0, 926.758071960941379, 621.0 ],
					"source" : [ "obj-603", 11 ]
				}

			}
, 			{
				"patchline" : 				{
					"destination" : [ "obj-644", 0 ],
					"midpoints" : [ 845.790330956059051, 369.0, 789.0, 369.0, 789.0, 435.0, 849.0, 435.0, 849.0, 621.0, 893.258071960941379, 621.0 ],
					"source" : [ "obj-603", 10 ]
				}

			}
, 			{
				"patchline" : 				{
					"destination" : [ "obj-645", 0 ],
					"midpoints" : [ 835.290330956059051, 369.0, 789.0, 369.0, 789.0, 435.0, 846.0, 435.0, 846.0, 489.0, 837.0, 489.0, 837.0, 621.0, 799.258071960941379, 621.0 ],
					"source" : [ "obj-603", 9 ]
				}

			}
, 			{
				"patchline" : 				{
					"destination" : [ "obj-646", 0 ],
					"midpoints" : [ 824.790330956059051, 369.0, 789.0, 369.0, 789.0, 435.0, 846.0, 435.0, 846.0, 489.0, 837.0, 489.0, 837.0, 621.0, 765.758071960941379, 621.0 ],
					"source" : [ "obj-603", 8 ]
				}

			}
, 			{
				"patchline" : 				{
					"destination" : [ "obj-605", 2 ],
					"source" : [ "obj-604", 0 ]
				}

			}
, 			{
				"patchline" : 				{
					"destination" : [ "obj-631", 0 ],
					"midpoints" : [ 679.758071960941379, 526.0, 266.5, 526.0 ],
					"source" : [ "obj-605", 0 ]
				}

			}
, 			{
				"patchline" : 				{
					"destination" : [ "obj-632", 0 ],
					"midpoints" : [ 690.258071960941379, 621.0, 300.0, 621.0 ],
					"source" : [ "obj-605", 1 ]
				}

			}
, 			{
				"patchline" : 				{
					"destination" : [ "obj-633", 0 ],
					"midpoints" : [ 711.258071960941379, 621.0, 417.5, 621.0 ],
					"source" : [ "obj-605", 3 ]
				}

			}
, 			{
				"patchline" : 				{
					"destination" : [ "obj-634", 0 ],
					"midpoints" : [ 700.758071960941379, 621.0, 384.0, 621.0 ],
					"source" : [ "obj-605", 2 ]
				}

			}
, 			{
				"patchline" : 				{
					"destination" : [ "obj-635", 0 ],
					"midpoints" : [ 753.258071960941379, 621.0, 670.5, 621.0 ],
					"source" : [ "obj-605", 7 ]
				}

			}
, 			{
				"patchline" : 				{
					"destination" : [ "obj-636", 0 ],
					"midpoints" : [ 742.758071960941379, 621.0, 637.0, 621.0 ],
					"source" : [ "obj-605", 6 ]
				}

			}
, 			{
				"patchline" : 				{
					"destination" : [ "obj-637", 0 ],
					"midpoints" : [ 732.258071960941379, 621.0, 549.0, 621.0 ],
					"source" : [ "obj-605", 5 ]
				}

			}
, 			{
				"patchline" : 				{
					"destination" : [ "obj-638", 0 ],
					"midpoints" : [ 721.758071960941379, 621.0, 515.5, 621.0 ],
					"source" : [ "obj-605", 4 ]
				}

			}
, 			{
				"patchline" : 				{
					"destination" : [ "obj-641", 0 ],
					"midpoints" : [ 816.258071960941379, 621.0, 1043.0, 621.0 ],
					"source" : [ "obj-605", 13 ]
				}

			}
, 			{
				"patchline" : 				{
					"destination" : [ "obj-642", 0 ],
					"midpoints" : [ 805.758071960941379, 621.0, 1009.5, 621.0 ],
					"source" : [ "obj-605", 12 ]
				}

			}
, 			{
				"patchline" : 				{
					"destination" : [ "obj-643", 0 ],
					"midpoints" : [ 795.258071960941379, 621.0, 926.758071960941379, 621.0 ],
					"source" : [ "obj-605", 11 ]
				}

			}
, 			{
				"patchline" : 				{
					"destination" : [ "obj-644", 0 ],
					"midpoints" : [ 784.758071960941379, 621.0, 893.258071960941379, 621.0 ],
					"source" : [ "obj-605", 10 ]
				}

			}
, 			{
				"patchline" : 				{
					"destination" : [ "obj-645", 0 ],
					"midpoints" : [ 774.258071960941379, 621.0, 799.258071960941379, 621.0 ],
					"source" : [ "obj-605", 9 ]
				}

			}
, 			{
				"patchline" : 				{
					"destination" : [ "obj-646", 0 ],
					"source" : [ "obj-605", 8 ]
				}

			}
, 			{
				"patchline" : 				{
					"destination" : [ "obj-607", 2 ],
					"source" : [ "obj-606", 0 ]
				}

			}
, 			{
				"patchline" : 				{
					"destination" : [ "obj-631", 0 ],
					"midpoints" : [ 618.693553970706034, 432.0, 192.0, 432.0, 192.0, 616.0, 266.5, 616.0 ],
					"source" : [ "obj-607", 0 ]
				}

			}
, 			{
				"patchline" : 				{
					"destination" : [ "obj-632", 0 ],
					"midpoints" : [ 629.193553970706034, 435.0, 291.0, 435.0, 291.0, 621.0, 300.0, 621.0 ],
					"source" : [ "obj-607", 1 ]
				}

			}
, 			{
				"patchline" : 				{
					"destination" : [ "obj-633", 0 ],
					"midpoints" : [ 650.193553970706034, 435.0, 480.0, 435.0, 480.0, 489.0, 471.0, 489.0, 471.0, 621.0, 417.5, 621.0 ],
					"source" : [ "obj-607", 3 ]
				}

			}
, 			{
				"patchline" : 				{
					"destination" : [ "obj-634", 0 ],
					"midpoints" : [ 639.693553970706034, 435.0, 480.0, 435.0, 480.0, 489.0, 471.0, 489.0, 471.0, 621.0, 384.0, 621.0 ],
					"source" : [ "obj-607", 2 ]
				}

			}
, 			{
				"patchline" : 				{
					"destination" : [ "obj-635", 0 ],
					"midpoints" : [ 692.193553970706034, 474.0, 657.0, 474.0, 657.0, 621.0, 670.5, 621.0 ],
					"source" : [ "obj-607", 7 ]
				}

			}
, 			{
				"patchline" : 				{
					"destination" : [ "obj-636", 0 ],
					"midpoints" : [ 681.693553970706034, 474.0, 657.0, 474.0, 657.0, 621.0, 637.0, 621.0 ],
					"source" : [ "obj-607", 6 ]
				}

			}
, 			{
				"patchline" : 				{
					"destination" : [ "obj-637", 0 ],
					"midpoints" : [ 671.193553970706034, 474.0, 657.0, 474.0, 657.0, 621.0, 549.0, 621.0 ],
					"source" : [ "obj-607", 5 ]
				}

			}
, 			{
				"patchline" : 				{
					"destination" : [ "obj-638", 0 ],
					"midpoints" : [ 660.693553970706034, 489.0, 654.0, 489.0, 654.0, 621.0, 515.5, 621.0 ],
					"source" : [ "obj-607", 4 ]
				}

			}
, 			{
				"patchline" : 				{
					"destination" : [ "obj-641", 0 ],
					"midpoints" : [ 755.193553970706034, 435.0, 1032.0, 435.0, 1032.0, 621.0, 1043.0, 621.0 ],
					"source" : [ "obj-607", 13 ]
				}

			}
, 			{
				"patchline" : 				{
					"destination" : [ "obj-642", 0 ],
					"midpoints" : [ 744.693553970706034, 435.0, 849.0, 435.0, 849.0, 621.0, 1009.5, 621.0 ],
					"source" : [ "obj-607", 12 ]
				}

			}
, 			{
				"patchline" : 				{
					"destination" : [ "obj-643", 0 ],
					"midpoints" : [ 734.193553970706034, 435.0, 849.0, 435.0, 849.0, 621.0, 926.758071960941379, 621.0 ],
					"source" : [ "obj-607", 11 ]
				}

			}
, 			{
				"patchline" : 				{
					"destination" : [ "obj-644", 0 ],
					"midpoints" : [ 723.693553970706034, 435.0, 849.0, 435.0, 849.0, 621.0, 893.258071960941379, 621.0 ],
					"source" : [ "obj-607", 10 ]
				}

			}
, 			{
				"patchline" : 				{
					"destination" : [ "obj-645", 0 ],
					"midpoints" : [ 713.193553970706034, 435.0, 846.0, 435.0, 846.0, 489.0, 837.0, 489.0, 837.0, 621.0, 799.258071960941379, 621.0 ],
					"source" : [ "obj-607", 9 ]
				}

			}
, 			{
				"patchline" : 				{
					"destination" : [ "obj-646", 0 ],
					"midpoints" : [ 702.693553970706034, 474.0, 657.0, 474.0, 657.0, 621.0, 765.758071960941379, 621.0 ],
					"source" : [ "obj-607", 8 ]
				}

			}
, 			{
				"patchline" : 				{
					"destination" : [ "obj-609", 2 ],
					"source" : [ "obj-608", 0 ]
				}

			}
, 			{
				"patchline" : 				{
					"destination" : [ "obj-631", 0 ],
					"midpoints" : [ 557.693553970706034, 318.0, 193.0, 318.0, 193.0, 618.0, 266.5, 618.0 ],
					"source" : [ "obj-609", 0 ]
				}

			}
, 			{
				"patchline" : 				{
					"destination" : [ "obj-632", 0 ],
					"midpoints" : [ 568.193553970706034, 330.0, 420.0, 330.0, 420.0, 384.0, 408.0, 384.0, 408.0, 474.0, 291.0, 474.0, 291.0, 621.0, 300.0, 621.0 ],
					"source" : [ "obj-609", 1 ]
				}

			}
, 			{
				"patchline" : 				{
					"destination" : [ "obj-633", 0 ],
					"midpoints" : [ 589.193553970706034, 330.0, 603.0, 330.0, 603.0, 384.0, 591.0, 384.0, 591.0, 474.0, 474.0, 474.0, 474.0, 621.0, 417.5, 621.0 ],
					"source" : [ "obj-609", 3 ]
				}

			}
, 			{
				"patchline" : 				{
					"destination" : [ "obj-634", 0 ],
					"midpoints" : [ 578.693553970706034, 330.0, 603.0, 330.0, 603.0, 384.0, 591.0, 384.0, 591.0, 474.0, 474.0, 474.0, 474.0, 621.0, 384.0, 621.0 ],
					"source" : [ "obj-609", 2 ]
				}

			}
, 			{
				"patchline" : 				{
					"destination" : [ "obj-635", 0 ],
					"midpoints" : [ 631.193553970706034, 369.0, 606.0, 369.0, 606.0, 435.0, 666.0, 435.0, 666.0, 630.0, 670.5, 630.0 ],
					"source" : [ "obj-609", 7 ]
				}

			}
, 			{
				"patchline" : 				{
					"destination" : [ "obj-636", 0 ],
					"midpoints" : [ 620.693553970706034, 369.0, 606.0, 369.0, 606.0, 435.0, 663.0, 435.0, 663.0, 489.0, 654.0, 489.0, 654.0, 621.0, 637.0, 621.0 ],
					"source" : [ "obj-609", 6 ]
				}

			}
, 			{
				"patchline" : 				{
					"destination" : [ "obj-637", 0 ],
					"midpoints" : [ 610.193553970706034, 369.0, 594.0, 369.0, 594.0, 435.0, 663.0, 435.0, 663.0, 489.0, 654.0, 489.0, 654.0, 621.0, 549.0, 621.0 ],
					"source" : [ "obj-609", 5 ]
				}

			}
, 			{
				"patchline" : 				{
					"destination" : [ "obj-638", 0 ],
					"midpoints" : [ 599.693553970706034, 330.0, 603.0, 330.0, 603.0, 384.0, 591.0, 384.0, 591.0, 474.0, 474.0, 474.0, 474.0, 621.0, 515.5, 621.0 ],
					"source" : [ "obj-609", 4 ]
				}

			}
, 			{
				"patchline" : 				{
					"destination" : [ "obj-641", 0 ],
					"midpoints" : [ 694.193553970706034, 330.0, 972.0, 330.0, 972.0, 435.0, 1032.0, 435.0, 1032.0, 621.0, 1043.0, 621.0 ],
					"source" : [ "obj-609", 13 ]
				}

			}
, 			{
				"patchline" : 				{
					"destination" : [ "obj-642", 0 ],
					"midpoints" : [ 683.693553970706034, 330.0, 789.0, 330.0, 789.0, 435.0, 849.0, 435.0, 849.0, 621.0, 1009.5, 621.0 ],
					"source" : [ "obj-609", 12 ]
				}

			}
, 			{
				"patchline" : 				{
					"destination" : [ "obj-643", 0 ],
					"midpoints" : [ 673.193553970706034, 330.0, 789.0, 330.0, 789.0, 435.0, 849.0, 435.0, 849.0, 621.0, 926.758071960941379, 621.0 ],
					"source" : [ "obj-609", 11 ]
				}

			}
, 			{
				"patchline" : 				{
					"destination" : [ "obj-644", 0 ],
					"midpoints" : [ 662.693553970706034, 330.0, 789.0, 330.0, 789.0, 435.0, 849.0, 435.0, 849.0, 621.0, 893.258071960941379, 621.0 ],
					"source" : [ "obj-609", 10 ]
				}

			}
, 			{
				"patchline" : 				{
					"destination" : [ "obj-645", 0 ],
					"midpoints" : [ 652.193553970706034, 330.0, 789.0, 330.0, 789.0, 435.0, 846.0, 435.0, 846.0, 489.0, 837.0, 489.0, 837.0, 621.0, 799.258071960941379, 621.0 ],
					"source" : [ "obj-609", 9 ]
				}

			}
, 			{
				"patchline" : 				{
					"destination" : [ "obj-646", 0 ],
					"midpoints" : [ 641.693553970706034, 369.0, 606.0, 369.0, 606.0, 435.0, 666.0, 435.0, 666.0, 621.0, 765.758071960941379, 621.0 ],
					"source" : [ "obj-609", 8 ]
				}

			}
, 			{
				"patchline" : 				{
					"destination" : [ "obj-599", 2 ],
					"source" : [ "obj-622", 0 ]
				}

			}
, 			{
				"patchline" : 				{
					"destination" : [ "obj-624", 2 ],
					"source" : [ "obj-623", 0 ]
				}

			}
, 			{
				"patchline" : 				{
					"destination" : [ "obj-631", 0 ],
					"midpoints" : [ 1045.854848946294396, 529.0, 266.5, 529.0 ],
					"source" : [ "obj-624", 0 ]
				}

			}
, 			{
				"patchline" : 				{
					"destination" : [ "obj-632", 0 ],
					"midpoints" : [ 1056.354848946294396, 621.0, 300.0, 621.0 ],
					"source" : [ "obj-624", 1 ]
				}

			}
, 			{
				"patchline" : 				{
					"destination" : [ "obj-633", 0 ],
					"midpoints" : [ 1077.354848946294396, 621.0, 417.5, 621.0 ],
					"source" : [ "obj-624", 3 ]
				}

			}
, 			{
				"patchline" : 				{
					"destination" : [ "obj-634", 0 ],
					"midpoints" : [ 1066.854848946294396, 621.0, 384.0, 621.0 ],
					"source" : [ "obj-624", 2 ]
				}

			}
, 			{
				"patchline" : 				{
					"destination" : [ "obj-635", 0 ],
					"midpoints" : [ 1119.354848946294396, 621.0, 670.5, 621.0 ],
					"source" : [ "obj-624", 7 ]
				}

			}
, 			{
				"patchline" : 				{
					"destination" : [ "obj-636", 0 ],
					"midpoints" : [ 1108.854848946294396, 621.0, 637.0, 621.0 ],
					"source" : [ "obj-624", 6 ]
				}

			}
, 			{
				"patchline" : 				{
					"destination" : [ "obj-637", 0 ],
					"midpoints" : [ 1098.354848946294396, 621.0, 549.0, 621.0 ],
					"source" : [ "obj-624", 5 ]
				}

			}
, 			{
				"patchline" : 				{
					"destination" : [ "obj-638", 0 ],
					"midpoints" : [ 1087.854848946294396, 621.0, 515.5, 621.0 ],
					"source" : [ "obj-624", 4 ]
				}

			}
, 			{
				"patchline" : 				{
					"destination" : [ "obj-641", 0 ],
					"midpoints" : [ 1182.354848946294396, 621.0, 1043.0, 621.0 ],
					"source" : [ "obj-624", 13 ]
				}

			}
, 			{
				"patchline" : 				{
					"destination" : [ "obj-642", 0 ],
					"midpoints" : [ 1171.854848946294396, 621.0, 1009.5, 621.0 ],
					"source" : [ "obj-624", 12 ]
				}

			}
, 			{
				"patchline" : 				{
					"destination" : [ "obj-643", 0 ],
					"midpoints" : [ 1161.354848946294396, 621.0, 926.758071960941379, 621.0 ],
					"source" : [ "obj-624", 11 ]
				}

			}
, 			{
				"patchline" : 				{
					"destination" : [ "obj-644", 0 ],
					"midpoints" : [ 1150.854848946294396, 621.0, 893.258071960941379, 621.0 ],
					"source" : [ "obj-624", 10 ]
				}

			}
, 			{
				"patchline" : 				{
					"destination" : [ "obj-645", 0 ],
					"midpoints" : [ 1140.354848946294396, 621.0, 799.258071960941379, 621.0 ],
					"source" : [ "obj-624", 9 ]
				}

			}
, 			{
				"patchline" : 				{
					"destination" : [ "obj-646", 0 ],
					"midpoints" : [ 1129.854848946294396, 621.0, 765.758071960941379, 621.0 ],
					"source" : [ "obj-624", 8 ]
				}

			}
, 			{
				"patchline" : 				{
					"destination" : [ "obj-626", 2 ],
					"source" : [ "obj-625", 0 ]
				}

			}
, 			{
				"patchline" : 				{
					"destination" : [ "obj-631", 0 ],
					"midpoints" : [ 984.790330956059051, 436.0, 191.0, 436.0, 191.0, 619.0, 266.5, 619.0 ],
					"source" : [ "obj-626", 0 ]
				}

			}
, 			{
				"patchline" : 				{
					"destination" : [ "obj-632", 0 ],
					"midpoints" : [ 995.290330956059051, 435.0, 291.0, 435.0, 291.0, 621.0, 300.0, 621.0 ],
					"source" : [ "obj-626", 1 ]
				}

			}
, 			{
				"patchline" : 				{
					"destination" : [ "obj-633", 0 ],
					"midpoints" : [ 1016.290330956059051, 435.0, 480.0, 435.0, 480.0, 489.0, 471.0, 489.0, 471.0, 621.0, 417.5, 621.0 ],
					"source" : [ "obj-626", 3 ]
				}

			}
, 			{
				"patchline" : 				{
					"destination" : [ "obj-634", 0 ],
					"midpoints" : [ 1005.790330956059051, 435.0, 480.0, 435.0, 480.0, 489.0, 471.0, 489.0, 471.0, 621.0, 384.0, 621.0 ],
					"source" : [ "obj-626", 2 ]
				}

			}
, 			{
				"patchline" : 				{
					"destination" : [ "obj-635", 0 ],
					"midpoints" : [ 1058.290330956059051, 474.0, 1023.0, 474.0, 1023.0, 621.0, 670.5, 621.0 ],
					"source" : [ "obj-626", 7 ]
				}

			}
, 			{
				"patchline" : 				{
					"destination" : [ "obj-636", 0 ],
					"midpoints" : [ 1047.790330956059051, 474.0, 1023.0, 474.0, 1023.0, 621.0, 637.0, 621.0 ],
					"source" : [ "obj-626", 6 ]
				}

			}
, 			{
				"patchline" : 				{
					"destination" : [ "obj-637", 0 ],
					"midpoints" : [ 1037.290330956059051, 474.0, 1023.0, 474.0, 1023.0, 621.0, 549.0, 621.0 ],
					"source" : [ "obj-626", 5 ]
				}

			}
, 			{
				"patchline" : 				{
					"destination" : [ "obj-638", 0 ],
					"midpoints" : [ 1026.790330956059051, 435.0, 663.0, 435.0, 663.0, 489.0, 654.0, 489.0, 654.0, 621.0, 515.5, 621.0 ],
					"source" : [ "obj-626", 4 ]
				}

			}
, 			{
				"patchline" : 				{
					"destination" : [ "obj-641", 0 ],
					"midpoints" : [ 1121.290330956059051, 474.0, 1023.0, 474.0, 1023.0, 621.0, 1043.0, 621.0 ],
					"source" : [ "obj-626", 13 ]
				}

			}
, 			{
				"patchline" : 				{
					"destination" : [ "obj-642", 0 ],
					"midpoints" : [ 1110.790330956059051, 474.0, 1023.0, 474.0, 1023.0, 621.0, 1009.5, 621.0 ],
					"source" : [ "obj-626", 12 ]
				}

			}
, 			{
				"patchline" : 				{
					"destination" : [ "obj-643", 0 ],
					"midpoints" : [ 1100.290330956059051, 474.0, 1023.0, 474.0, 1023.0, 621.0, 926.758071960941379, 621.0 ],
					"source" : [ "obj-626", 11 ]
				}

			}
, 			{
				"patchline" : 				{
					"destination" : [ "obj-644", 0 ],
					"midpoints" : [ 1089.790330956059051, 474.0, 1023.0, 474.0, 1023.0, 621.0, 893.258071960941379, 621.0 ],
					"source" : [ "obj-626", 10 ]
				}

			}
, 			{
				"patchline" : 				{
					"destination" : [ "obj-645", 0 ],
					"midpoints" : [ 1079.290330956059051, 474.0, 1023.0, 474.0, 1023.0, 621.0, 799.258071960941379, 621.0 ],
					"source" : [ "obj-626", 9 ]
				}

			}
, 			{
				"patchline" : 				{
					"destination" : [ "obj-646", 0 ],
					"midpoints" : [ 1068.790330956059051, 474.0, 1023.0, 474.0, 1023.0, 621.0, 765.758071960941379, 621.0 ],
					"source" : [ "obj-626", 8 ]
				}

			}
, 			{
				"patchline" : 				{
					"destination" : [ "obj-628", 2 ],
					"source" : [ "obj-627", 0 ]
				}

			}
, 			{
				"patchline" : 				{
					"destination" : [ "obj-631", 0 ],
					"midpoints" : [ 923.790330956059051, 318.0, 191.0, 318.0, 191.0, 618.0, 266.5, 618.0 ],
					"source" : [ "obj-628", 0 ]
				}

			}
, 			{
				"patchline" : 				{
					"destination" : [ "obj-632", 0 ],
					"midpoints" : [ 934.290330956059051, 330.0, 420.0, 330.0, 420.0, 384.0, 408.0, 384.0, 408.0, 474.0, 291.0, 474.0, 291.0, 621.0, 300.0, 621.0 ],
					"source" : [ "obj-628", 1 ]
				}

			}
, 			{
				"patchline" : 				{
					"destination" : [ "obj-633", 0 ],
					"midpoints" : [ 955.290330956059051, 330.0, 603.0, 330.0, 603.0, 384.0, 591.0, 384.0, 591.0, 474.0, 474.0, 474.0, 474.0, 621.0, 417.5, 621.0 ],
					"source" : [ "obj-628", 3 ]
				}

			}
, 			{
				"patchline" : 				{
					"destination" : [ "obj-634", 0 ],
					"midpoints" : [ 944.790330956059051, 330.0, 603.0, 330.0, 603.0, 384.0, 591.0, 384.0, 591.0, 474.0, 474.0, 474.0, 474.0, 621.0, 384.0, 621.0 ],
					"source" : [ "obj-628", 2 ]
				}

			}
, 			{
				"patchline" : 				{
					"destination" : [ "obj-635", 0 ],
					"midpoints" : [ 997.290330956059051, 369.0, 960.0, 369.0, 960.0, 474.0, 840.0, 474.0, 840.0, 621.0, 670.5, 621.0 ],
					"source" : [ "obj-628", 7 ]
				}

			}
, 			{
				"patchline" : 				{
					"destination" : [ "obj-636", 0 ],
					"midpoints" : [ 986.790330956059051, 369.0, 960.0, 369.0, 960.0, 474.0, 840.0, 474.0, 840.0, 621.0, 637.0, 621.0 ],
					"source" : [ "obj-628", 6 ]
				}

			}
, 			{
				"patchline" : 				{
					"destination" : [ "obj-637", 0 ],
					"midpoints" : [ 976.290330956059051, 369.0, 960.0, 369.0, 960.0, 474.0, 840.0, 474.0, 840.0, 621.0, 549.0, 621.0 ],
					"source" : [ "obj-628", 5 ]
				}

			}
, 			{
				"patchline" : 				{
					"destination" : [ "obj-638", 0 ],
					"midpoints" : [ 965.790330956059051, 330.0, 786.0, 330.0, 786.0, 384.0, 774.0, 384.0, 774.0, 474.0, 657.0, 474.0, 657.0, 621.0, 515.5, 621.0 ],
					"source" : [ "obj-628", 4 ]
				}

			}
, 			{
				"patchline" : 				{
					"destination" : [ "obj-641", 0 ],
					"source" : [ "obj-628", 13 ]
				}

			}
, 			{
				"patchline" : 				{
					"destination" : [ "obj-642", 0 ],
					"midpoints" : [ 1049.790330956059051, 369.0, 972.0, 369.0, 972.0, 435.0, 1029.0, 435.0, 1029.0, 489.0, 1020.0, 489.0, 1020.0, 621.0, 1009.5, 621.0 ],
					"source" : [ "obj-628", 12 ]
				}

			}
, 			{
				"patchline" : 				{
					"destination" : [ "obj-643", 0 ],
					"midpoints" : [ 1039.290330956059051, 369.0, 972.0, 369.0, 972.0, 435.0, 1029.0, 435.0, 1029.0, 489.0, 1020.0, 489.0, 1020.0, 621.0, 926.758071960941379, 621.0 ],
					"source" : [ "obj-628", 11 ]
				}

			}
, 			{
				"patchline" : 				{
					"destination" : [ "obj-644", 0 ],
					"midpoints" : [ 1028.790330956059051, 369.0, 960.0, 369.0, 960.0, 474.0, 840.0, 474.0, 840.0, 621.0, 893.258071960941379, 621.0 ],
					"source" : [ "obj-628", 10 ]
				}

			}
, 			{
				"patchline" : 				{
					"destination" : [ "obj-645", 0 ],
					"midpoints" : [ 1018.290330956059051, 369.0, 960.0, 369.0, 960.0, 474.0, 840.0, 474.0, 840.0, 621.0, 799.258071960941379, 621.0 ],
					"source" : [ "obj-628", 9 ]
				}

			}
, 			{
				"patchline" : 				{
					"destination" : [ "obj-646", 0 ],
					"midpoints" : [ 1007.790330956059051, 369.0, 960.0, 369.0, 960.0, 474.0, 840.0, 474.0, 840.0, 621.0, 765.758071960941379, 621.0 ],
					"source" : [ "obj-628", 8 ]
				}

			}
, 			{
				"patchline" : 				{
					"destination" : [ "obj-630", 2 ],
					"source" : [ "obj-629", 0 ]
				}

			}
, 			{
				"patchline" : 				{
					"destination" : [ "obj-631", 0 ],
					"midpoints" : [ 1107.790330956059051, 319.0, 194.0, 319.0, 194.0, 617.0, 266.5, 617.0 ],
					"source" : [ "obj-630", 0 ]
				}

			}
, 			{
				"patchline" : 				{
					"destination" : [ "obj-632", 0 ],
					"midpoints" : [ 1118.290330956059051, 330.0, 420.0, 330.0, 420.0, 384.0, 408.0, 384.0, 408.0, 474.0, 291.0, 474.0, 291.0, 621.0, 300.0, 621.0 ],
					"source" : [ "obj-630", 1 ]
				}

			}
, 			{
				"patchline" : 				{
					"destination" : [ "obj-633", 0 ],
					"midpoints" : [ 1139.290330956059051, 330.0, 603.0, 330.0, 603.0, 384.0, 591.0, 384.0, 591.0, 474.0, 474.0, 474.0, 474.0, 621.0, 417.5, 621.0 ],
					"source" : [ "obj-630", 3 ]
				}

			}
, 			{
				"patchline" : 				{
					"destination" : [ "obj-634", 0 ],
					"midpoints" : [ 1128.790330956059051, 330.0, 603.0, 330.0, 603.0, 384.0, 591.0, 384.0, 591.0, 474.0, 474.0, 474.0, 474.0, 621.0, 384.0, 621.0 ],
					"source" : [ "obj-630", 2 ]
				}

			}
, 			{
				"patchline" : 				{
					"destination" : [ "obj-635", 0 ],
					"midpoints" : [ 1181.290330956059051, 435.0, 846.0, 435.0, 846.0, 489.0, 837.0, 489.0, 837.0, 621.0, 670.5, 621.0 ],
					"source" : [ "obj-630", 7 ]
				}

			}
, 			{
				"patchline" : 				{
					"destination" : [ "obj-636", 0 ],
					"midpoints" : [ 1170.790330956059051, 435.0, 663.0, 435.0, 663.0, 489.0, 654.0, 489.0, 654.0, 621.0, 637.0, 621.0 ],
					"source" : [ "obj-630", 6 ]
				}

			}
, 			{
				"patchline" : 				{
					"destination" : [ "obj-637", 0 ],
					"midpoints" : [ 1160.290330956059051, 474.0, 1023.0, 474.0, 1023.0, 621.0, 549.0, 621.0 ],
					"source" : [ "obj-630", 5 ]
				}

			}
, 			{
				"patchline" : 				{
					"destination" : [ "obj-638", 0 ],
					"midpoints" : [ 1149.790330956059051, 330.0, 786.0, 330.0, 786.0, 384.0, 774.0, 384.0, 774.0, 474.0, 657.0, 474.0, 657.0, 621.0, 515.5, 621.0 ],
					"source" : [ "obj-630", 4 ]
				}

			}
, 			{
				"patchline" : 				{
					"destination" : [ "obj-641", 0 ],
					"midpoints" : [ 1244.290330956059051, 621.0, 1043.0, 621.0 ],
					"source" : [ "obj-630", 13 ]
				}

			}
, 			{
				"patchline" : 				{
					"destination" : [ "obj-642", 0 ],
					"midpoints" : [ 1233.790330956059051, 621.0, 1009.5, 621.0 ],
					"source" : [ "obj-630", 12 ]
				}

			}
, 			{
				"patchline" : 				{
					"destination" : [ "obj-643", 0 ],
					"midpoints" : [ 1223.290330956059051, 621.0, 926.758071960941379, 621.0 ],
					"source" : [ "obj-630", 11 ]
				}

			}
, 			{
				"patchline" : 				{
					"destination" : [ "obj-644", 0 ],
					"midpoints" : [ 1212.790330956059051, 621.0, 893.258071960941379, 621.0 ],
					"source" : [ "obj-630", 10 ]
				}

			}
, 			{
				"patchline" : 				{
					"destination" : [ "obj-645", 0 ],
					"midpoints" : [ 1202.290330956059051, 435.0, 846.0, 435.0, 846.0, 489.0, 837.0, 489.0, 837.0, 621.0, 799.258071960941379, 621.0 ],
					"source" : [ "obj-630", 9 ]
				}

			}
, 			{
				"patchline" : 				{
					"destination" : [ "obj-646", 0 ],
					"midpoints" : [ 1191.790330956059051, 435.0, 846.0, 435.0, 846.0, 489.0, 837.0, 489.0, 837.0, 621.0, 765.758071960941379, 621.0 ],
					"source" : [ "obj-630", 8 ]
				}

			}
, 			{
				"patchline" : 				{
					"destination" : [ "obj-2", 1 ],
					"order" : 1,
					"source" : [ "obj-66", 0 ]
				}

			}
, 			{
				"patchline" : 				{
					"destination" : [ "obj-572", 0 ],
					"order" : 0,
					"source" : [ "obj-66", 0 ]
				}

			}
, 			{
				"patchline" : 				{
					"destination" : [ "obj-589", 0 ],
					"source" : [ "obj-66", 1 ]
				}

			}
, 			{
				"patchline" : 				{
					"destination" : [ "obj-591", 0 ],
					"source" : [ "obj-66", 2 ]
				}

			}
, 			{
				"patchline" : 				{
					"destination" : [ "obj-593", 0 ],
					"source" : [ "obj-66", 5 ]
				}

			}
, 			{
				"patchline" : 				{
					"destination" : [ "obj-595", 0 ],
					"source" : [ "obj-66", 4 ]
				}

			}
, 			{
				"patchline" : 				{
					"destination" : [ "obj-597", 0 ],
					"source" : [ "obj-66", 3 ]
				}

			}
, 			{
				"patchline" : 				{
					"destination" : [ "obj-599", 0 ],
					"source" : [ "obj-66", 11 ]
				}

			}
, 			{
				"patchline" : 				{
					"destination" : [ "obj-601", 0 ],
					"midpoints" : [ 801.822589951176724, 258.0, 717.0, 258.0, 717.0, 330.0, 801.790330956059051, 330.0 ],
					"source" : [ "obj-66", 10 ]
				}

			}
, 			{
				"patchline" : 				{
					"destination" : [ "obj-603", 0 ],
					"source" : [ "obj-66", 9 ]
				}

			}
, 			{
				"patchline" : 				{
					"destination" : [ "obj-605", 0 ],
					"source" : [ "obj-66", 8 ]
				}

			}
, 			{
				"patchline" : 				{
					"destination" : [ "obj-607", 0 ],
					"source" : [ "obj-66", 7 ]
				}

			}
, 			{
				"patchline" : 				{
					"destination" : [ "obj-609", 0 ],
					"source" : [ "obj-66", 6 ]
				}

			}
, 			{
				"patchline" : 				{
					"destination" : [ "obj-624", 0 ],
					"source" : [ "obj-66", 14 ]
				}

			}
, 			{
				"patchline" : 				{
					"destination" : [ "obj-626", 0 ],
					"source" : [ "obj-66", 13 ]
				}

			}
, 			{
				"patchline" : 				{
					"destination" : [ "obj-628", 0 ],
					"source" : [ "obj-66", 12 ]
				}

			}
, 			{
				"patchline" : 				{
					"destination" : [ "obj-630", 0 ],
					"source" : [ "obj-66", 15 ]
				}

			}
 ]
	}

}
